<?xml version="1.0"?>
<!-- Generated by SVGo -->
<svg width="1480" height="1110"
     xmlns="http://www.w3.org/2000/svg"
     xmlns:xlink="http://www.w3.org/1999/xlink">
<rect x="0" y="0" width="1480" height="1110" rx="5" ry="5" style="fill:#282d35" />
<circle cx="20" cy="20" r="7" style="fill:#ff5f58" />
<circle cx="43" cy="20" r="7" style="fill:#ffbd2e" />
<circle cx="66" cy="20" r="7" style="fill:#18c132" />
<g transform="translate(20,60)" >
<g style="animation-duration:7.07s;animation-iteration-count:infinite;animation-name:k;animation-timing-function:steps(1,end);font-family:Monaco,Consolas,Menlo,'Bitstream Vera Sans Mono','Powerline Symbols',monospace;font-size:20px">
<style type="text/css">
<![CDATA[
@keyframes k {0.081%{transform:translateX(-0px)}0.265%{transform:translateX(-1480px)}0.268%{transform:translateX(-2960px)}0.519%{transform:translateX(-4440px)}0.520%{transform:translateX(-5920px)}11.359%{transform:translateX(-7400px)}13.485%{transform:translateX(-8880px)}15.831%{transform:translateX(-10360px)}24.571%{transform:translateX(-11840px)}31.169%{transform:translateX(-13320px)}37.771%{transform:translateX(-14800px)}46.260%{transform:translateX(-16280px)}52.621%{transform:translateX(-17760px)}52.622%{transform:translateX(-19240px)}55.925%{transform:translateX(-20720px)}62.517%{transform:translateX(-22200px)}62.518%{transform:translateX(-23680px)}66.999%{transform:translateX(-25160px)}81.624%{transform:translateX(-26640px)}81.624%{transform:translateX(-28120px)}99.818%{transform:translateX(-29600px)}99.819%{transform:translateX(-31080px)}100.000%{transform:translateX(-32560px)}}.f{fill:#cdf3d6}.a{fill:#e5e5e5}.b{fill:#89ebdc}.c{fill:#58705b}.d{fill:#a6a1e3}.e{fill:#1e2e1e}
]]>
</style>
<g transform="translate(0)">
</g>
<g transform="translate(1480)">
</g>
<g transform="translate(2960)">
</g>
<g transform="translate(4440)">
<text x="0" y="0" class="b"  >SSH</text>
<text x="48" y="0" class="b"  >Menu</text>
<text x="564" y="0" class="c"  >↑/↓</text>
<text x="612" y="0" class="c"  >Navigate</text>
<text x="720" y="0" class="c"  >•</text>
<text x="744" y="0" class="c"  >←/→</text>
<text x="792" y="0" class="c"  >Switch</text>
<text x="876" y="0" class="c"  >View</text>
<text x="936" y="0" class="c"  >•</text>
<text x="960" y="0" class="c"  >Type</text>
<text x="1020" y="0" class="c"  >to</text>
<text x="1056" y="0" class="c"  >Filter</text>
<text x="1140" y="0" class="c"  >•</text>
<text x="1164" y="0" class="c"  >Enter</text>
<text x="1236" y="0" class="c"  >Select</text>
<text x="1320" y="0" class="c"  >•</text>
<text x="1344" y="0" class="c"  >Esc</text>
<text x="1392" y="0" class="c" >Quit</text>
<defs>
<filter id="10937249" >
<feFlood result="bg"  flood-color="#a6a1e3" flood-opacity="1" />
<feMerge>
<feMergeNode in="bg"/>
<feMergeNode in="SourceGraphic"/>
</feMerge>
</filter>
</defs>
<text x="12" y="25" class="e" filter="url(#10937249)" >All</text>
<text x="72" y="25" class="c"  >•</text>
<text x="108" y="25" class="f"  >Cloud</text>
<text x="192" y="25" class="c"  >•</text>
<text x="228" y="25" class="f"  >Development</text>
<text x="384" y="25" class="c"  >•</text>
<text x="420" y="25" class="f"  >Infrastructu…</text>
<text x="600" y="25" class="c"  >•</text>
<text x="636" y="25" class="f"  >Production</text>
<text x="780" y="25" class="c"  >•</text>
<text x="816" y="25" class="f"  >Staging</text>
<text x="0" y="75" class="d"  >▸</text>
<text x="36" y="75" class="d"  >1)</text>
<text x="72" y="75" class="d"  >db</text>
<text x="324" y="75" class="d"  >dbadmin@db:3022</text>
<text x="36" y="100" class="f"  >2)</text>
<text x="72" y="100" class="f"  >web1</text>
<text x="324" y="100" class="f"  >webadmin@web1:22</text>
<text x="36" y="125" class="f"  >3)</text>
<text x="72" y="125" class="f"  >lb</text>
<text x="324" y="125" class="f"  >admin@lb:22</text>
<text x="36" y="150" class="f"  >4)</text>
<text x="72" y="150" class="f"  >web-staging</text>
<text x="324" y="150" class="f"  >deploy@web-staging:22</text>
<text x="36" y="175" class="f"  >5)</text>
<text x="72" y="175" class="f"  >db-staging</text>
<text x="324" y="175" class="f"  >deploy@db-staging:3022</text>
<text x="36" y="200" class="f"  >6)</text>
<text x="72" y="200" class="f"  >dev</text>
<text x="324" y="200" class="f"  >developer@dev:22</text>
</g>
<g transform="translate(5920)">
<text x="0" y="0" class="b"  >SSH</text>
<text x="48" y="0" class="b"  >Menu</text>
<text x="564" y="0" class="c"  >↑/↓</text>
<text x="612" y="0" class="c"  >Navigate</text>
<text x="720" y="0" class="c"  >•</text>
<text x="744" y="0" class="c"  >←/→</text>
<text x="792" y="0" class="c"  >Switch</text>
<text x="876" y="0" class="c"  >View</text>
<text x="936" y="0" class="c"  >•</text>
<text x="960" y="0" class="c"  >Type</text>
<text x="1020" y="0" class="c"  >to</text>
<text x="1056" y="0" class="c"  >Filter</text>
<text x="1140" y="0" class="c"  >•</text>
<text x="1164" y="0" class="c"  >Enter</text>
<text x="1236" y="0" class="c"  >Select</text>
<text x="1320" y="0" class="c"  >•</text>
<text x="1344" y="0" class="c"  >Esc</text>
<text x="1392" y="0" class="c" >Quit</text>
<text x="12" y="25" class="e" filter="url(#10937249)" >All</text>
<text x="72" y="25" class="c"  >•</text>
<text x="108" y="25" class="f"  >Cloud</text>
<text x="192" y="25" class="c"  >•</text>
<text x="228" y="25" class="f"  >Development</text>
<text x="384" y="25" class="c"  >•</text>
<text x="420" y="25" class="f"  >Infrastructu…</text>
<text x="600" y="25" class="c"  >•</text>
<text x="636" y="25" class="f"  >Production</text>
<text x="780" y="25" class="c"  >•</text>
<text x="816" y="25" class="f"  >Staging</text>
<text x="0" y="75" class="d"  >▸</text>
<text x="36" y="75" class="d"  >1)</text>
<text x="72" y="75" class="d"  >db</text>
<text x="324" y="75" class="d"  >dbadmin@db:3022</text>
<text x="36" y="100" class="f"  >2)</text>
<text x="72" y="100" class="f"  >web1</text>
<text x="324" y="100" class="f"  >webadmin@web1:22</text>
<text x="36" y="125" class="f"  >3)</text>
<text x="72" y="125" class="f"  >lb</text>
<text x="324" y="125" class="f"  >admin@lb:22</text>
<text x="36" y="150" class="f"  >4)</text>
<text x="72" y="150" class="f"  >web-staging</text>
<text x="324" y="150" class="f"  >deploy@web-staging:22</text>
<text x="36" y="175" class="f"  >5)</text>
<text x="72" y="175" class="f"  >db-staging</text>
<text x="324" y="175" class="f"  >deploy@db-staging:3022</text>
<text x="36" y="200" class="f"  >6)</text>
<text x="72" y="200" class="f"  >dev</text>
<text x="324" y="200" class="f"  >developer@dev:22</text>
<text x="36" y="225" class="f"  >7)</text>
<text x="72" y="225" class="f"  >jump</text>
<text x="324" y="225" class="f"  >jumpadmin@jump:22</text>
<text x="36" y="250" class="f"  >8)</text>
<text x="72" y="250" class="f"  >monitor</text>
<text x="324" y="250" class="f"  >sysadmin@monitor:22</text>
<text x="36" y="275" class="f"  >9)</text>
<text x="72" y="275" class="f"  >backup</text>
<text x="324" y="275" class="f"  >backupadmin@backup:2222</text>
<text x="24" y="300" class="f"  >10)</text>
<text x="72" y="300" class="f"  >aws-app</text>
<text x="324" y="300" class="f"  >ec2-user@aws-app:22</text>
</g>
<g transform="translate(7400)">
<text x="0" y="0" class="b"  >SSH</text>
<text x="48" y="0" class="b"  >Menu</text>
<text x="564" y="0" class="c"  >↑/↓</text>
<text x="612" y="0" class="c"  >Navigate</text>
<text x="720" y="0" class="c"  >•</text>
<text x="744" y="0" class="c"  >←/→</text>
<text x="792" y="0" class="c"  >Switch</text>
<text x="876" y="0" class="c"  >View</text>
<text x="936" y="0" class="c"  >•</text>
<text x="960" y="0" class="c"  >Type</text>
<text x="1020" y="0" class="c"  >to</text>
<text x="1056" y="0" class="c"  >Filter</text>
<text x="1140" y="0" class="c"  >•</text>
<text x="1164" y="0" class="c"  >Enter</text>
<text x="1236" y="0" class="c"  >Select</text>
<text x="1320" y="0" class="c"  >•</text>
<text x="1344" y="0" class="c"  >Esc</text>
<text x="1392" y="0" class="c" >Quit</text>
<text x="12" y="25" class="f"  >All</text>
<text x="72" y="25" class="c"  >•</text>
<text x="108" y="25" class="e" filter="url(#10937249)" >Cloud</text>
<text x="192" y="25" class="c"  >•</text>
<text x="228" y="25" class="f"  >Development</text>
<text x="384" y="25" class="c"  >•</text>
<text x="420" y="25" class="f"  >Infrastructu…</text>
<text x="600" y="25" class="c"  >•</text>
<text x="636" y="25" class="f"  >Production</text>
<text x="780" y="25" class="c"  >•</text>
<text x="816" y="25" class="f"  >Staging</text>
<text x="0" y="75" class="d"  >▸</text>
<text x="24" y="75" class="d"  >10)</text>
<text x="72" y="75" class="d"  >aws-app</text>
<text x="324" y="75" class="d"  >ec2-user@aws-app:22</text>
</g>
<g transform="translate(8880)">
<text x="0" y="0" class="b"  >SSH</text>
<text x="48" y="0" class="b"  >Menu</text>
<text x="564" y="0" class="c"  >↑/↓</text>
<text x="612" y="0" class="c"  >Navigate</text>
<text x="720" y="0" class="c"  >•</text>
<text x="744" y="0" class="c"  >←/→</text>
<text x="792" y="0" class="c"  >Switch</text>
<text x="876" y="0" class="c"  >View</text>
<text x="936" y="0" class="c"  >•</text>
<text x="960" y="0" class="c"  >Type</text>
<text x="1020" y="0" class="c"  >to</text>
<text x="1056" y="0" class="c"  >Filter</text>
<text x="1140" y="0" class="c"  >•</text>
<text x="1164" y="0" class="c"  >Enter</text>
<text x="1236" y="0" class="c"  >Select</text>
<text x="1320" y="0" class="c"  >•</text>
<text x="1344" y="0" class="c"  >Esc</text>
<text x="1392" y="0" class="c" >Quit</text>
<text x="12" y="25" class="f"  >All</text>
<text x="72" y="25" class="c"  >•</text>
<text x="108" y="25" class="f"  >Cloud</text>
<text x="192" y="25" class="c"  >•</text>
<text x="228" y="25" class="e" filter="url(#10937249)" >Development</text>
<text x="384" y="25" class="c"  >•</text>
<text x="420" y="25" class="f"  >Infrastructu…</text>
<text x="600" y="25" class="c"  >•</text>
<text x="636" y="25" class="f"  >Production</text>
<text x="780" y="25" class="c"  >•</text>
<text x="816" y="25" class="f"  >Staging</text>
<text x="0" y="75" class="d"  >▸</text>
<text x="36" y="75" class="d"  >6)</text>
<text x="72" y="75" class="d"  >dev</text>
<text x="324" y="75" class="d"  >developer@dev:22</text>
</g>
<g transform="translate(10360)">
<text x="0" y="0" class="b"  >SSH</text>
<text x="48" y="0" class="b"  >Menu</text>
<text x="564" y="0" class="c"  >↑/↓</text>
<text x="612" y="0" class="c"  >Navigate</text>
<text x="720" y="0" class="c"  >•</text>
<text x="744" y="0" class="c"  >←/→</text>
<text x="792" y="0" class="c"  >Switch</text>
<text x="876" y="0" class="c"  >View</text>
<text x="936" y="0" class="c"  >•</text>
<text x="960" y="0" class="c"  >Type</text>
<text x="1020" y="0" class="c"  >to</text>
<text x="1056" y="0" class="c"  >Filter</text>
<text x="1140" y="0" class="c"  >•</text>
<text x="1164" y="0" class="c"  >Enter</text>
<text x="1236" y="0" class="c"  >Select</text>
<text x="1320" y="0" class="c"  >•</text>
<text x="1344" y="0" class="c"  >Esc</text>
<text x="1392" y="0" class="c" >Quit</text>
<text x="12" y="25" class="f"  >All</text>
<text x="72" y="25" class="c"  >•</text>
<text x="108" y="25" class="f"  >Cloud</text>
<text x="192" y="25" class="c"  >•</text>
<text x="228" y="25" class="f"  >Development</text>
<text x="384" y="25" class="c"  >•</text>
<text x="420" y="25" class="e" filter="url(#10937249)" >Infrastructu…</text>
<text x="600" y="25" class="c"  >•</text>
<text x="636" y="25" class="f"  >Production</text>
<text x="780" y="25" class="c"  >•</text>
<text x="816" y="25" class="f"  >Staging</text>
<text x="0" y="75" class="d"  >▸</text>
<text x="36" y="75" class="d"  >7)</text>
<text x="72" y="75" class="d"  >jump</text>
<text x="324" y="75" class="d"  >jumpadmin@jump:22</text>
<text x="36" y="100" class="f"  >8)</text>
<text x="72" y="100" class="f"  >monitor</text>
<text x="324" y="100" class="f"  >sysadmin@monitor:22</text>
<text x="36" y="125" class="f"  >9)</text>
<text x="72" y="125" class="f"  >backup</text>
<text x="324" y="125" class="f"  >backupadmin@backup:2222</text>
</g>
<g transform="translate(11840)">
<text x="0" y="0" class="b"  >SSH</text>
<text x="48" y="0" class="b"  >Menu</text>
<text x="564" y="0" class="c"  >↑/↓</text>
<text x="612" y="0" class="c"  >Navigate</text>
<text x="720" y="0" class="c"  >•</text>
<text x="744" y="0" class="c"  >←/→</text>
<text x="792" y="0" class="c"  >Switch</text>
<text x="876" y="0" class="c"  >View</text>
<text x="936" y="0" class="c"  >•</text>
<text x="960" y="0" class="c"  >Type</text>
<text x="1020" y="0" class="c"  >to</text>
<text x="1056" y="0" class="c"  >Filter</text>
<text x="1140" y="0" class="c"  >•</text>
<text x="1164" y="0" class="c"  >Enter</text>
<text x="1236" y="0" class="c"  >Select</text>
<text x="1320" y="0" class="c"  >•</text>
<text x="1344" y="0" class="c"  >Esc</text>
<text x="1392" y="0" class="c" >Quit</text>
<text x="12" y="25" class="f"  >All</text>
<text x="72" y="25" class="c"  >•</text>
<text x="108" y="25" class="f"  >Cloud</text>
<text x="192" y="25" class="c"  >•</text>
<text x="228" y="25" class="f"  >Development</text>
<text x="384" y="25" class="c"  >•</text>
<text x="420" y="25" class="e" filter="url(#10937249)" >Infrastructu…</text>
<text x="600" y="25" class="c"  >•</text>
<text x="636" y="25" class="f"  >Production</text>
<text x="780" y="25" class="c"  >•</text>
<text x="816" y="25" class="f"  >Staging</text>
<text x="36" y="75" class="f"  >7)</text>
<text x="72" y="75" class="f"  >jump</text>
<text x="324" y="75" class="f"  >jumpadmin@jump:22</text>
<text x="0" y="100" class="d"  >▸</text>
<text x="36" y="100" class="d"  >8)</text>
<text x="72" y="100" class="d"  >monitor</text>
<text x="324" y="100" class="d"  >sysadmin@monitor:22</text>
<text x="36" y="125" class="f"  >9)</text>
<text x="72" y="125" class="f"  >backup</text>
<text x="324" y="125" class="f"  >backupadmin@backup:2222</text>
</g>
<g transform="translate(13320)">
<text x="0" y="0" class="b"  >SSH</text>
<text x="48" y="0" class="b"  >Menu</text>
<text x="564" y="0" class="c"  >↑/↓</text>
<text x="612" y="0" class="c"  >Navigate</text>
<text x="720" y="0" class="c"  >•</text>
<text x="744" y="0" class="c"  >←/→</text>
<text x="792" y="0" class="c"  >Switch</text>
<text x="876" y="0" class="c"  >View</text>
<text x="936" y="0" class="c"  >•</text>
<text x="960" y="0" class="c"  >Type</text>
<text x="1020" y="0" class="c"  >to</text>
<text x="1056" y="0" class="c"  >Filter</text>
<text x="1140" y="0" class="c"  >•</text>
<text x="1164" y="0" class="c"  >Enter</text>
<text x="1236" y="0" class="c"  >Select</text>
<text x="1320" y="0" class="c"  >•</text>
<text x="1344" y="0" class="c"  >Esc</text>
<text x="1392" y="0" class="c" >Quit</text>
<text x="12" y="25" class="f"  >All</text>
<text x="72" y="25" class="c"  >•</text>
<text x="108" y="25" class="f"  >Cloud</text>
<text x="192" y="25" class="c"  >•</text>
<text x="228" y="25" class="f"  >Development</text>
<text x="384" y="25" class="c"  >•</text>
<text x="420" y="25" class="e" filter="url(#10937249)" >Infrastructu…</text>
<text x="600" y="25" class="c"  >•</text>
<text x="636" y="25" class="f"  >Production</text>
<text x="780" y="25" class="c"  >•</text>
<text x="816" y="25" class="f"  >Staging</text>
<text x="36" y="75" class="f"  >7)</text>
<text x="72" y="75" class="f"  >jump</text>
<text x="324" y="75" class="f"  >jumpadmin@jump:22</text>
<text x="36" y="100" class="f"  >8)</text>
<text x="72" y="100" class="f"  >monitor</text>
<text x="324" y="100" class="f"  >sysadmin@monitor:22</text>
<text x="0" y="125" class="d"  >▸</text>
<text x="36" y="125" class="d"  >9)</text>
<text x="72" y="125" class="d"  >backup</text>
<text x="324" y="125" class="d"  >backupadmin@backup:2222</text>
</g>
<g transform="translate(14800)">
<text x="0" y="0" class="b"  >SSH</text>
<text x="48" y="0" class="b"  >Menu</text>
<text x="564" y="0" class="c"  >↑/↓</text>
<text x="612" y="0" class="c"  >Navigate</text>
<text x="720" y="0" class="c"  >•</text>
<text x="744" y="0" class="c"  >←/→</text>
<text x="792" y="0" class="c"  >Switch</text>
<text x="876" y="0" class="c"  >View</text>
<text x="936" y="0" class="c"  >•</text>
<text x="960" y="0" class="c"  >Type</text>
<text x="1020" y="0" class="c"  >to</text>
<text x="1056" y="0" class="c"  >Filter</text>
<text x="1140" y="0" class="c"  >•</text>
<text x="1164" y="0" class="c"  >Enter</text>
<text x="1236" y="0" class="c"  >Select</text>
<text x="1320" y="0" class="c"  >•</text>
<text x="1344" y="0" class="c"  >Esc</text>
<text x="1392" y="0" class="c" >Quit</text>
<text x="12" y="25" class="f"  >All</text>
<text x="72" y="25" class="c"  >•</text>
<text x="108" y="25" class="f"  >Cloud</text>
<text x="192" y="25" class="c"  >•</text>
<text x="228" y="25" class="e" filter="url(#10937249)" >Development</text>
<text x="384" y="25" class="c"  >•</text>
<text x="420" y="25" class="f"  >Infrastructu…</text>
<text x="600" y="25" class="c"  >•</text>
<text x="636" y="25" class="f"  >Production</text>
<text x="780" y="25" class="c"  >•</text>
<text x="816" y="25" class="f"  >Staging</text>
<text x="0" y="75" class="d"  >▸</text>
<text x="36" y="75" class="d"  >6)</text>
<text x="72" y="75" class="d"  >dev</text>
<text x="324" y="75" class="d"  >developer@dev:22</text>
</g>
<g transform="translate(16280)">
<text x="0" y="0" class="b"  >SSH</text>
<text x="48" y="0" class="b"  >Menu</text>
<text x="564" y="0" class="c"  >↑/↓</text>
<text x="612" y="0" class="c"  >Navigate</text>
<text x="720" y="0" class="c"  >•</text>
<text x="744" y="0" class="c"  >←/→</text>
<text x="792" y="0" class="c"  >Switch</text>
<text x="876" y="0" class="c"  >View</text>
<text x="936" y="0" class="c"  >•</text>
<text x="960" y="0" class="c"  >Type</text>
<text x="1020" y="0" class="c"  >to</text>
<text x="1056" y="0" class="c"  >Filter</text>
<text x="1140" y="0" class="c"  >•</text>
<text x="1164" y="0" class="c"  >Enter</text>
<text x="1236" y="0" class="c"  >Select</text>
<text x="1320" y="0" class="c"  >•</text>
<text x="1344" y="0" class="c"  >Esc</text>
<text x="1392" y="0" class="c" >Quit</text>
<text x="12" y="25" class="f"  >All</text>
<text x="72" y="25" class="c"  >•</text>
<text x="108" y="25" class="e" filter="url(#10937249)" >Cloud</text>
<text x="192" y="25" class="c"  >•</text>
<text x="228" y="25" class="f"  >Development</text>
<text x="384" y="25" class="c"  >•</text>
<text x="420" y="25" class="f"  >Infrastructu…</text>
<text x="600" y="25" class="c"  >•</text>
<text x="636" y="25" class="f"  >Production</text>
<text x="780" y="25" class="c"  >•</text>
<text x="816" y="25" class="f"  >Staging</text>
<text x="0" y="75" class="d"  >▸</text>
<text x="24" y="75" class="d"  >10)</text>
<text x="72" y="75" class="d"  >aws-app</text>
<text x="324" y="75" class="d"  >ec2-user@aws-app:22</text>
</g>
<g transform="translate(17760)">
<text x="0" y="0" class="b"  >SSH</text>
<text x="48" y="0" class="b"  >Menu</text>
<text x="564" y="0" class="c"  >↑/↓</text>
<text x="612" y="0" class="c"  >Navigate</text>
<text x="720" y="0" class="c"  >•</text>
<text x="744" y="0" class="c"  >←/→</text>
<text x="792" y="0" class="c"  >Switch</text>
<text x="876" y="0" class="c"  >View</text>
<text x="936" y="0" class="c"  >•</text>
<text x="960" y="0" class="c"  >Type</text>
<text x="1020" y="0" class="c"  >to</text>
<text x="1056" y="0" class="c"  >Filter</text>
<text x="1140" y="0" class="c"  >•</text>
<text x="1164" y="0" class="c"  >Enter</text>
<text x="1236" y="0" class="c"  >Select</text>
<text x="1320" y="0" class="c"  >•</text>
<text x="1344" y="0" class="c"  >Esc</text>
<text x="1392" y="0" class="c" >Quit</text>
<text x="12" y="25" class="e" filter="url(#10937249)" >All</text>
<text x="72" y="25" class="c"  >•</text>
<text x="108" y="25" class="f"  >Cloud</text>
<text x="192" y="25" class="c"  >•</text>
<text x="228" y="25" class="f"  >Development</text>
<text x="384" y="25" class="c"  >•</text>
<text x="420" y="25" class="f"  >Infrastructu…</text>
<text x="600" y="25" class="c"  >•</text>
<text x="636" y="25" class="f"  >Production</text>
<text x="780" y="25" class="c"  >•</text>
<text x="816" y="25" class="f"  >Staging</text>
<text x="0" y="75" class="d"  >▸</text>
<text x="36" y="75" class="d"  >1)</text>
<text x="72" y="75" class="d"  >db</text>
<text x="324" y="75" class="d"  >dbadmin@db:3022</text>
<text x="36" y="100" class="f"  >2)</text>
<text x="72" y="100" class="f"  >web1</text>
<text x="324" y="100" class="f"  >webadmin@web1:22</text>
<text x="36" y="125" class="f"  >3)</text>
<text x="72" y="125" class="f"  >lb</text>
<text x="324" y="125" class="f"  >admin@lb:22</text>
<text x="36" y="150" class="f"  >4)</text>
<text x="72" y="150" class="f"  >web-staging</text>
<text x="324" y="150" class="f"  >deploy@web-staging:22</text>
<text x="36" y="175" class="f"  >5)</text>
<text x="72" y="175" class="f"  >db-staging</text>
<text x="324" y="175" class="f"  >deploy@db-staging:3022</text>
<text x="36" y="200" class="f"  >6)</text>
<text x="72" y="200" class="f"  >dev</text>
<text x="324" y="200" class="f"  >developer@dev:22</text>
<text x="36" y="225" class="f"  >7)</text>
<text x="72" y="225" class="f"  >jump</text>
<text x="324" y="225" class="f"  >jumpadmin@jump:22</text>
<text x="36" y="250" class="f"  >8)</text>
<text x="72" y="250" class="f"  >monitor</text>
<text x="324" y="250" class="f"  >sysadmin@monitor:22</text>
<text x="36" y="275" class="f"  >9)</text>
<text x="72" y="275" class="f"  >backup</text>
</g>
<g transform="translate(19240)">
<text x="0" y="0" class="b"  >SSH</text>
<text x="48" y="0" class="b"  >Menu</text>
<text x="564" y="0" class="c"  >↑/↓</text>
<text x="612" y="0" class="c"  >Navigate</text>
<text x="720" y="0" class="c"  >•</text>
<text x="744" y="0" class="c"  >←/→</text>
<text x="792" y="0" class="c"  >Switch</text>
<text x="876" y="0" class="c"  >View</text>
<text x="936" y="0" class="c"  >•</text>
<text x="960" y="0" class="c"  >Type</text>
<text x="1020" y="0" class="c"  >to</text>
<text x="1056" y="0" class="c"  >Filter</text>
<text x="1140" y="0" class="c"  >•</text>
<text x="1164" y="0" class="c"  >Enter</text>
<text x="1236" y="0" class="c"  >Select</text>
<text x="1320" y="0" class="c"  >•</text>
<text x="1344" y="0" class="c"  >Esc</text>
<text x="1392" y="0" class="c" >Quit</text>
<text x="12" y="25" class="e" filter="url(#10937249)" >All</text>
<text x="72" y="25" class="c"  >•</text>
<text x="108" y="25" class="f"  >Cloud</text>
<text x="192" y="25" class="c"  >•</text>
<text x="228" y="25" class="f"  >Development</text>
<text x="384" y="25" class="c"  >•</text>
<text x="420" y="25" class="f"  >Infrastructu…</text>
<text x="600" y="25" class="c"  >•</text>
<text x="636" y="25" class="f"  >Production</text>
<text x="780" y="25" class="c"  >•</text>
<text x="816" y="25" class="f"  >Staging</text>
<text x="0" y="75" class="d"  >▸</text>
<text x="36" y="75" class="d"  >1)</text>
<text x="72" y="75" class="d"  >db</text>
<text x="324" y="75" class="d"  >dbadmin@db:3022</text>
<text x="36" y="100" class="f"  >2)</text>
<text x="72" y="100" class="f"  >web1</text>
<text x="324" y="100" class="f"  >webadmin@web1:22</text>
<text x="36" y="125" class="f"  >3)</text>
<text x="72" y="125" class="f"  >lb</text>
<text x="324" y="125" class="f"  >admin@lb:22</text>
<text x="36" y="150" class="f"  >4)</text>
<text x="72" y="150" class="f"  >web-staging</text>
<text x="324" y="150" class="f"  >deploy@web-staging:22</text>
<text x="36" y="175" class="f"  >5)</text>
<text x="72" y="175" class="f"  >db-staging</text>
<text x="324" y="175" class="f"  >deploy@db-staging:3022</text>
<text x="36" y="200" class="f"  >6)</text>
<text x="72" y="200" class="f"  >dev</text>
<text x="324" y="200" class="f"  >developer@dev:22</text>
<text x="36" y="225" class="f"  >7)</text>
<text x="72" y="225" class="f"  >jump</text>
<text x="324" y="225" class="f"  >jumpadmin@jump:22</text>
<text x="36" y="250" class="f"  >8)</text>
<text x="72" y="250" class="f"  >monitor</text>
<text x="324" y="250" class="f"  >sysadmin@monitor:22</text>
<text x="36" y="275" class="f"  >9)</text>
<text x="72" y="275" class="f"  >backup</text>
<text x="324" y="275" class="f"  >backupadmin@backup:2222</text>
<text x="24" y="300" class="f"  >10)</text>
<text x="72" y="300" class="f"  >aws-app</text>
<text x="324" y="300" class="f"  >ec2-user@aws-app:22</text>
</g>
<g transform="translate(20720)">
<text x="0" y="0" class="b"  >SSH</text>
<text x="48" y="0" class="b"  >Menu</text>
<text x="564" y="0" class="c"  >↑/↓</text>
<text x="612" y="0" class="c"  >Navigate</text>
<text x="720" y="0" class="c"  >•</text>
<text x="744" y="0" class="c"  >←/→</text>
<text x="792" y="0" class="c"  >Switch</text>
<text x="876" y="0" class="c"  >View</text>
<text x="936" y="0" class="c"  >•</text>
<text x="960" y="0" class="c"  >Type</text>
<text x="1020" y="0" class="c"  >to</text>
<text x="1056" y="0" class="c"  >Filter</text>
<text x="1140" y="0" class="c"  >•</text>
<text x="1164" y="0" class="c"  >Enter</text>
<text x="1236" y="0" class="c"  >Select</text>
<text x="1320" y="0" class="c"  >•</text>
<text x="1344" y="0" class="c"  >Esc</text>
<text x="1392" y="0" class="c" >Quit</text>
<text x="12" y="25" class="f"  >All</text>
<text x="72" y="25" class="c"  >•</text>
<text x="108" y="25" class="f"  >Cloud</text>
<text x="192" y="25" class="c"  >•</text>
<text x="228" y="25" class="f"  >Development</text>
<text x="384" y="25" class="c"  >•</text>
<text x="420" y="25" class="f"  >Infrastructu…</text>
<text x="600" y="25" class="c"  >•</text>
<text x="636" y="25" class="f"  >Production</text>
<text x="780" y="25" class="c"  >•</text>
<text x="816" y="25" class="e" filter="url(#10937249)" >Staging</text>
<text x="0" y="75" class="d"  >▸</text>
<text x="36" y="75" class="d"  >4)</text>
<text x="72" y="75" class="d"  >web-staging</text>
<text x="324" y="75" class="d"  >deploy@web-staging:22</text>
<text x="36" y="100" class="f"  >5)</text>
<text x="72" y="100" class="f"  >db-staging</text>
<text x="324" y="100" class="f"  >deploy@db-staging:3022</text>
</g>
<g transform="translate(22200)">
<text x="0" y="0" class="b"  >SSH</text>
<text x="48" y="0" class="b"  >Menu</text>
<text x="564" y="0" class="c"  >↑/↓</text>
<text x="612" y="0" class="c"  >Navigate</text>
<text x="720" y="0" class="c"  >•</text>
<text x="744" y="0" class="c"  >←/→</text>
<text x="792" y="0" class="c"  >Switch</text>
<text x="876" y="0" class="c"  >View</text>
<text x="936" y="0" class="c"  >•</text>
<text x="960" y="0" class="c"  >Type</text>
<text x="1020" y="0" class="c"  >to</text>
<text x="1056" y="0" class="c"  >Filter</text>
<text x="1140" y="0" class="c"  >•</text>
<text x="1164" y="0" class="c"  >Enter</text>
<text x="1236" y="0" class="c"  >Select</text>
<text x="1320" y="0" class="c"  >•</text>
<text x="1344" y="0" class="c"  >Esc</text>
<text x="1392" y="0" class="c" >Quit</text>
<text x="12" y="25" class="e" filter="url(#10937249)" >All</text>
<text x="72" y="25" class="c"  >•</text>
<text x="108" y="25" class="f"  >Cloud</text>
<text x="192" y="25" class="c"  >•</text>
<text x="228" y="25" class="f"  >Development</text>
<text x="384" y="25" class="c"  >•</text>
<text x="420" y="25" class="f"  >Infrastructu…</text>
<text x="600" y="25" class="c"  >•</text>
<text x="636" y="25" class="f"  >Production</text>
<text x="780" y="25" class="c"  >•</text>
<text x="816" y="25" class="f"  >Staging</text>
<text x="0" y="75" class="d"  >▸</text>
<text x="36" y="75" class="d"  >1)</text>
<text x="72" y="75" class="d"  >db</text>
<text x="324" y="75" class="d"  >dbadmin@db:3022</text>
<text x="36" y="100" class="f"  >2)</text>
<text x="72" y="100" class="f"  >web1</text>
<text x="324" y="100" class="f"  >webadmin@web1:22</text>
<text x="36" y="125" class="f"  >3)</text>
<text x="72" y="125" class="f"  >lb</text>
<text x="324" y="125" class="f"  >admin@lb:22</text>
<text x="36" y="150" class="f"  >4)</text>
<text x="72" y="150" class="f"  >web-staging</text>
<text x="324" y="150" class="f"  >deploy@web-staging:22</text>
<text x="36" y="175" class="f"  >5)</text>
<text x="72" y="175" class="f"  >db-staging</text>
<text x="324" y="175" class="f"  >deploy@db-staging:3022</text>
<text x="36" y="200" class="f"  >6)</text>
<text x="72" y="200" class="f"  >dev</text>
<text x="324" y="200" class="f"  >developer@dev:22</text>
<text x="36" y="225" class="f"  >7)</text>
<text x="72" y="225" class="f"  >jump</text>
<text x="324" y="225" class="f"  >jumpadmin@jump:22</text>
<text x="36" y="250" class="f"  >8)</text>
<text x="72" y="250" class="f"  >monitor</text>
<text x="324" y="250" class="f"  >sysadmin@monitor:22</text>
<text x="36" y="275" class="f"  >9)</text>
<text x="72" y="275" class="f"  >backup</text>
</g>
<g transform="translate(23680)">
<text x="0" y="0" class="b"  >SSH</text>
<text x="48" y="0" class="b"  >Menu</text>
<text x="564" y="0" class="c"  >↑/↓</text>
<text x="612" y="0" class="c"  >Navigate</text>
<text x="720" y="0" class="c"  >•</text>
<text x="744" y="0" class="c"  >←/→</text>
<text x="792" y="0" class="c"  >Switch</text>
<text x="876" y="0" class="c"  >View</text>
<text x="936" y="0" class="c"  >•</text>
<text x="960" y="0" class="c"  >Type</text>
<text x="1020" y="0" class="c"  >to</text>
<text x="1056" y="0" class="c"  >Filter</text>
<text x="1140" y="0" class="c"  >•</text>
<text x="1164" y="0" class="c"  >Enter</text>
<text x="1236" y="0" class="c"  >Select</text>
<text x="1320" y="0" class="c"  >•</text>
<text x="1344" y="0" class="c"  >Esc</text>
<text x="1392" y="0" class="c" >Quit</text>
<text x="12" y="25" class="e" filter="url(#10937249)" >All</text>
<text x="72" y="25" class="c"  >•</text>
<text x="108" y="25" class="f"  >Cloud</text>
<text x="192" y="25" class="c"  >•</text>
<text x="228" y="25" class="f"  >Development</text>
<text x="384" y="25" class="c"  >•</text>
<text x="420" y="25" class="f"  >Infrastructu…</text>
<text x="600" y="25" class="c"  >•</text>
<text x="636" y="25" class="f"  >Production</text>
<text x="780" y="25" class="c"  >•</text>
<text x="816" y="25" class="f"  >Staging</text>
<text x="0" y="75" class="d"  >▸</text>
<text x="36" y="75" class="d"  >1)</text>
<text x="72" y="75" class="d"  >db</text>
<text x="324" y="75" class="d"  >dbadmin@db:3022</text>
<text x="36" y="100" class="f"  >2)</text>
<text x="72" y="100" class="f"  >web1</text>
<text x="324" y="100" class="f"  >webadmin@web1:22</text>
<text x="36" y="125" class="f"  >3)</text>
<text x="72" y="125" class="f"  >lb</text>
<text x="324" y="125" class="f"  >admin@lb:22</text>
<text x="36" y="150" class="f"  >4)</text>
<text x="72" y="150" class="f"  >web-staging</text>
<text x="324" y="150" class="f"  >deploy@web-staging:22</text>
<text x="36" y="175" class="f"  >5)</text>
<text x="72" y="175" class="f"  >db-staging</text>
<text x="324" y="175" class="f"  >deploy@db-staging:3022</text>
<text x="36" y="200" class="f"  >6)</text>
<text x="72" y="200" class="f"  >dev</text>
<text x="324" y="200" class="f"  >developer@dev:22</text>
<text x="36" y="225" class="f"  >7)</text>
<text x="72" y="225" class="f"  >jump</text>
<text x="324" y="225" class="f"  >jumpadmin@jump:22</text>
<text x="36" y="250" class="f"  >8)</text>
<text x="72" y="250" class="f"  >monitor</text>
<text x="324" y="250" class="f"  >sysadmin@monitor:22</text>
<text x="36" y="275" class="f"  >9)</text>
<text x="72" y="275" class="f"  >backup</text>
<text x="324" y="275" class="f"  >backupadmin@backup:2222</text>
<text x="24" y="300" class="f"  >10)</text>
<text x="72" y="300" class="f"  >aws-app</text>
<text x="324" y="300" class="f"  >ec2-user@aws-app:22</text>
</g>
<g transform="translate(25160)">
<text x="0" y="0" class="b"  >SSH</text>
<text x="48" y="0" class="b"  >Menu</text>
<text x="564" y="0" class="c"  >↑/↓</text>
<text x="612" y="0" class="c"  >Navigate</text>
<text x="720" y="0" class="c"  >•</text>
<text x="744" y="0" class="c"  >←/→</text>
<text x="792" y="0" class="c"  >Switch</text>
<text x="876" y="0" class="c"  >View</text>
<text x="936" y="0" class="c"  >•</text>
<text x="960" y="0" class="c"  >Type</text>
<text x="1020" y="0" class="c"  >to</text>
<text x="1056" y="0" class="c"  >Filter</text>
<text x="1140" y="0" class="c"  >•</text>
<text x="1164" y="0" class="c"  >Enter</text>
<text x="1236" y="0" class="c"  >Select</text>
<text x="1320" y="0" class="c"  >•</text>
<text x="1344" y="0" class="c"  >Esc</text>
<text x="1392" y="0" class="c" >Quit</text>
<text x="12" y="25" class="f"  >All</text>
<text x="72" y="25" class="c"  >•</text>
<text x="108" y="25" class="e" filter="url(#10937249)" >Cloud</text>
<text x="192" y="25" class="c"  >•</text>
<text x="228" y="25" class="f"  >Development</text>
<text x="384" y="25" class="c"  >•</text>
<text x="420" y="25" class="f"  >Infrastructu…</text>
<text x="600" y="25" class="c"  >•</text>
<text x="636" y="25" class="f"  >Production</text>
<text x="780" y="25" class="c"  >•</text>
<text x="816" y="25" class="f"  >Staging</text>
<text x="0" y="75" class="d"  >▸</text>
<text x="24" y="75" class="d"  >10)</text>
<text x="72" y="75" class="d"  >aws-app</text>
<text x="324" y="75" class="d"  >ec2-user@aws-app:22</text>
</g>
<g transform="translate(26640)">
<text x="0" y="0" class="b"  >SSH</text>
<text x="48" y="0" class="b"  >Menu</text>
<text x="564" y="0" class="c"  >↑/↓</text>
<text x="612" y="0" class="c"  >Navigate</text>
<text x="720" y="0" class="c"  >•</text>
<text x="744" y="0" class="c"  >←/→</text>
<text x="792" y="0" class="c"  >Switch</text>
<text x="876" y="0" class="c"  >View</text>
<text x="936" y="0" class="c"  >•</text>
<text x="960" y="0" class="c"  >Type</text>
<text x="1020" y="0" class="c"  >to</text>
<text x="1056" y="0" class="c"  >Filter</text>
<text x="1140" y="0" class="c"  >•</text>
<text x="1164" y="0" class="c"  >Enter</text>
<text x="1236" y="0" class="c"  >Select</text>
<text x="1320" y="0" class="c"  >•</text>
<text x="1344" y="0" class="c"  >Esc</text>
<text x="1392" y="0" class="c" >Quit</text>
<text x="12" y="25" class="e" filter="url(#10937249)" >All</text>
<text x="72" y="25" class="c"  >•</text>
<text x="108" y="25" class="f"  >Cloud</text>
<text x="192" y="25" class="c"  >•</text>
<text x="228" y="25" class="f"  >Development</text>
<text x="384" y="25" class="c"  >•</text>
<text x="420" y="25" class="f"  >Infrastructu…</text>
<text x="600" y="25" class="c"  >•</text>
<text x="636" y="25" class="f"  >Production</text>
<text x="780" y="25" class="c"  >•</text>
<text x="816" y="25" class="f"  >Staging</text>
<text x="0" y="75" class="d"  >▸</text>
<text x="36" y="75" class="d"  >1)</text>
<text x="72" y="75" class="d"  >db</text>
<text x="324" y="75" class="d"  >dbadmin@db:3022</text>
<text x="36" y="100" class="f"  >2)</text>
<text x="72" y="100" class="f"  >web1</text>
<text x="324" y="100" class="f"  >webadmin@web1:22</text>
<text x="36" y="125" class="f"  >3)</text>
<text x="72" y="125" class="f"  >lb</text>
<text x="324" y="125" class="f"  >admin@lb:22</text>
<text x="36" y="150" class="f"  >4)</text>
<text x="72" y="150" class="f"  >web-staging</text>
<text x="324" y="150" class="f"  >deploy@web-staging:22</text>
<text x="36" y="175" class="f"  >5)</text>
<text x="72" y="175" class="f"  >db-staging</text>
<text x="324" y="175" class="f"  >deploy@db-staging:3022</text>
<text x="36" y="200" class="f"  >6)</text>
<text x="72" y="200" class="f"  >dev</text>
<text x="324" y="200" class="f"  >developer@dev:22</text>
<text x="36" y="225" class="f"  >7)</text>
<text x="72" y="225" class="f"  >jump</text>
<text x="324" y="225" class="f"  >jumpadmin@jump:22</text>
<text x="36" y="250" class="f"  >8)</text>
<text x="72" y="250" class="f"  >monitor</text>
<text x="324" y="250" class="f"  >sysadmin@monitor:22</text>
<text x="36" y="275" class="f"  >9)</text>
<text x="72" y="275" class="f"  >backup</text>
</g>
<g transform="translate(28120)">
<text x="0" y="0" class="b"  >SSH</text>
<text x="48" y="0" class="b"  >Menu</text>
<text x="564" y="0" class="c"  >↑/↓</text>
<text x="612" y="0" class="c"  >Navigate</text>
<text x="720" y="0" class="c"  >•</text>
<text x="744" y="0" class="c"  >←/→</text>
<text x="792" y="0" class="c"  >Switch</text>
<text x="876" y="0" class="c"  >View</text>
<text x="936" y="0" class="c"  >•</text>
<text x="960" y="0" class="c"  >Type</text>
<text x="1020" y="0" class="c"  >to</text>
<text x="1056" y="0" class="c"  >Filter</text>
<text x="1140" y="0" class="c"  >•</text>
<text x="1164" y="0" class="c"  >Enter</text>
<text x="1236" y="0" class="c"  >Select</text>
<text x="1320" y="0" class="c"  >•</text>
<text x="1344" y="0" class="c"  >Esc</text>
<text x="1392" y="0" class="c" >Quit</text>
<text x="12" y="25" class="e" filter="url(#10937249)" >All</text>
<text x="72" y="25" class="c"  >•</text>
<text x="108" y="25" class="f"  >Cloud</text>
<text x="192" y="25" class="c"  >•</text>
<text x="228" y="25" class="f"  >Development</text>
<text x="384" y="25" class="c"  >•</text>
<text x="420" y="25" class="f"  >Infrastructu…</text>
<text x="600" y="25" class="c"  >•</text>
<text x="636" y="25" class="f"  >Production</text>
<text x="780" y="25" class="c"  >•</text>
<text x="816" y="25" class="f"  >Staging</text>
<text x="0" y="75" class="d"  >▸</text>
<text x="36" y="75" class="d"  >1)</text>
<text x="72" y="75" class="d"  >db</text>
<text x="324" y="75" class="d"  >dbadmin@db:3022</text>
<text x="36" y="100" class="f"  >2)</text>
<text x="72" y="100" class="f"  >web1</text>
<text x="324" y="100" class="f"  >webadmin@web1:22</text>
<text x="36" y="125" class="f"  >3)</text>
<text x="72" y="125" class="f"  >lb</text>
<text x="324" y="125" class="f"  >admin@lb:22</text>
<text x="36" y="150" class="f"  >4)</text>
<text x="72" y="150" class="f"  >web-staging</text>
<text x="324" y="150" class="f"  >deploy@web-staging:22</text>
<text x="36" y="175" class="f"  >5)</text>
<text x="72" y="175" class="f"  >db-staging</text>
<text x="324" y="175" class="f"  >deploy@db-staging:3022</text>
<text x="36" y="200" class="f"  >6)</text>
<text x="72" y="200" class="f"  >dev</text>
<text x="324" y="200" class="f"  >developer@dev:22</text>
<text x="36" y="225" class="f"  >7)</text>
<text x="72" y="225" class="f"  >jump</text>
<text x="324" y="225" class="f"  >jumpadmin@jump:22</text>
<text x="36" y="250" class="f"  >8)</text>
<text x="72" y="250" class="f"  >monitor</text>
<text x="324" y="250" class="f"  >sysadmin@monitor:22</text>
<text x="36" y="275" class="f"  >9)</text>
<text x="72" y="275" class="f"  >backup</text>
<text x="324" y="275" class="f"  >backupadmin@backup:2222</text>
<text x="24" y="300" class="f"  >10)</text>
<text x="72" y="300" class="f"  >aws-app</text>
<text x="324" y="300" class="f"  >ec2-user@aws-app:22</text>
</g>
<g transform="translate(29600)">
<text x="0" y="0" class="b"  >SSH</text>
<text x="48" y="0" class="b"  >Menu</text>
<text x="564" y="0" class="c"  >↑/↓</text>
<text x="612" y="0" class="c"  >Navigate</text>
<text x="720" y="0" class="c"  >•</text>
<text x="744" y="0" class="c"  >←/→</text>
<text x="792" y="0" class="c"  >Switch</text>
<text x="876" y="0" class="c"  >View</text>
<text x="936" y="0" class="c"  >•</text>
<text x="960" y="0" class="c"  >Type</text>
<text x="1020" y="0" class="c"  >to</text>
<text x="1056" y="0" class="c"  >Filter</text>
<text x="1140" y="0" class="c"  >•</text>
<text x="1164" y="0" class="c"  >Enter</text>
<text x="1236" y="0" class="c"  >Select</text>
<text x="1320" y="0" class="c"  >•</text>
<text x="1344" y="0" class="c"  >Esc</text>
<text x="1392" y="0" class="c" >Quit</text>
<text x="12" y="25" class="e" filter="url(#10937249)" >All</text>
<text x="72" y="25" class="c"  >•</text>
<text x="108" y="25" class="f"  >Cloud</text>
<text x="192" y="25" class="c"  >•</text>
<text x="228" y="25" class="f"  >Development</text>
<text x="384" y="25" class="c"  >•</text>
<text x="420" y="25" class="f"  >Infrastructu…</text>
<text x="600" y="25" class="c"  >•</text>
<text x="636" y="25" class="f"  >Production</text>
<text x="780" y="25" class="c"  >•</text>
<text x="816" y="25" class="f"  >Staging</text>
<text x="0" y="75" class="d"  >▸</text>
<text x="36" y="75" class="d"  >1)</text>
<text x="72" y="75" class="d"  >db</text>
<text x="324" y="75" class="d"  >dbadmin@db:3022</text>
<text x="36" y="100" class="f"  >2)</text>
<text x="72" y="100" class="f"  >web1</text>
<text x="324" y="100" class="f"  >webadmin@web1:22</text>
<text x="36" y="125" class="f"  >3)</text>
<text x="72" y="125" class="f"  >lb</text>
<text x="324" y="125" class="f"  >admin@lb:22</text>
<text x="36" y="150" class="f"  >4)</text>
<text x="72" y="150" class="f"  >web-staging</text>
<text x="324" y="150" class="f"  >deploy@web-staging:22</text>
<text x="36" y="175" class="f"  >5)</text>
<text x="72" y="175" class="f"  >db-staging</text>
<text x="324" y="175" class="f"  >deploy@db-staging:3022</text>
<text x="36" y="200" class="f"  >6)</text>
<text x="72" y="200" class="f"  >dev</text>
<text x="324" y="200" class="f"  >developer@dev:22</text>
<text x="36" y="225" class="f"  >7)</text>
<text x="72" y="225" class="f"  >jump</text>
<text x="324" y="225" class="f"  >jumpadmin@jump:22</text>
<text x="36" y="250" class="f"  >8)</text>
<text x="72" y="250" class="f"  >monitor</text>
<text x="324" y="250" class="f"  >sysadmin@monitor:22</text>
<text x="36" y="275" class="f"  >9)</text>
<text x="72" y="275" class="f"  >backup</text>
<text x="324" y="275" class="f"  >backupadmin@backup:2222</text>
<text x="24" y="300" class="f"  >10)</text>
<text x="72" y="300" class="f"  >aws-app</text>
<text x="324" y="300" class="f"  >ec2-user@aws-app:22</text>
</g>
<g transform="translate(31080)">
</g>
<g transform="translate(32560)">
</g>
</g>
</g>
</svg>
